<svg xmlns="http://www.w3.org/2000/svg" width="26" height="37.031" viewBox="0 0 26 37.031">
  <defs>
    <style>
      .cls-1 {
        fill: #222;
        fill-rule: evenodd;
      }
    </style>
  </defs>
  <path id="i1.svg" class="cls-1" d="M843.986,745.55v-5.017a20.082,20.082,0,0,0-4.2-12.025,22.226,22.226,0,0,0-4.214-4.348,0.98,0.98,0,0,0-1.153,0,22.272,22.272,0,0,0-4.213,4.348,20.082,20.082,0,0,0-4.2,12.025v5.017A4.883,4.883,0,0,0,822,750.3v9.765a0.937,0.937,0,0,0,.683.894,0.95,0.95,0,0,0,.278.041,0.965,0.965,0,0,0,.8-0.417l4.013-5.859a0.921,0.921,0,0,0,.162-0.519v-0.988h4.1v2.646c0,1.408,1.657,3.965,2.165,4.716a0.974,0.974,0,0,0,1.6,0c0.508-.75,2.165-3.308,2.165-4.716v-2.646h4.1v0.988a0.913,0.913,0,0,0,.162.519l4.013,5.859a0.965,0.965,0,0,0,.8.417,0.95,0.95,0,0,0,.278-0.041,0.937,0.937,0,0,0,.683-0.894V750.3A4.884,4.884,0,0,0,843.986,745.55ZM827.961,739.6a17.113,17.113,0,0,1,1.427-5.944H840.6a17.2,17.2,0,0,1,1.439,5.944H827.961ZM835,726.124a22.242,22.242,0,0,1,4.658,5.661H830.33a21.743,21.743,0,0,1,1.4-2.127A22.153,22.153,0,0,1,835,726.124Zm-8.987,27.8-2.092,3.056V750.3a2.986,2.986,0,0,1,2.093-2.822v6.444h0Zm1.921-12.454h6.105v4.162a3.18,3.18,0,0,0-2.006,3.012v2.706h-4.1v-9.88Zm8.112,14.4a7.563,7.563,0,0,1-1.046,2.4,7.554,7.554,0,0,1-1.046-2.4v-7.221a1.073,1.073,0,1,1,2.092,0v7.221Zm6.019-4.515h-4.1v-2.706a3.18,3.18,0,0,0-2.007-3.012v-4.162h6.105v9.88Zm4.013,5.63-2.092-3.056v-6.444a2.985,2.985,0,0,1,2.092,2.822v6.678Z" transform="translate(-822 -723.969)"/>
</svg>
