<svg xmlns="http://www.w3.org/2000/svg" width="21" height="38" viewBox="0 0 21 38">
  <defs>
    <style>
      .cls-1 {
        fill-rule: evenodd;
      }
    </style>
  </defs>
  <path id="i11.svg" class="cls-1" d="M1250.35,2905.7l0.2-.68a9.492,9.492,0,0,1,2.03-3.36c0.13-.14,3.42-3.41,3.42-7.26a10.5,10.5,0,0,0-21,0c0,3.85,3.29,7.12,3.43,7.26a9.615,9.615,0,0,1,2.02,3.36l0.21,0.68c-1.93.29-3.42,2.33-3.42,4.81,0,2.3,2.7,7.6,3.01,8.2a0.978,0.978,0,0,0,.87.52,0.954,0.954,0,0,0,.86-0.53c0.02-.03.31-0.58,0.69-1.4,0.94,2.19,1.91,4.07,1.96,4.18a0.988,0.988,0,0,0,1.74,0c0.05-.11,1.02-1.99,1.96-4.18,0.38,0.82.67,1.37,0.69,1.41a0.963,0.963,0,0,0,.86.52,0.978,0.978,0,0,0,.87-0.52c0.31-.6,3.01-5.9,3.01-8.2C1253.76,2908.03,1252.27,2905.99,1250.35,2905.7Zm-10.55-5.41c-0.03-.03-2.86-2.83-2.86-5.89a8.56,8.56,0,0,1,17.12,0c0,3.04-2.83,5.87-2.86,5.89a11.6,11.6,0,0,0-2.52,4.19l-0.73,2.46h-0.44l0.93-7.12h1.23a0.96,0.96,0,1,0,0-1.92h-8.33a0.96,0.96,0,1,0,0,1.92h1.22l0.93,7.12h-0.44l-0.73-2.46A11.52,11.52,0,0,0,1239.8,2900.29Zm5.65,6.65-0.93-7.12h1.96l-0.93,7.12h-0.1Zm4.43,9.12c-0.22-.49-0.47-1.04-0.71-1.61a0.981,0.981,0,0,0-1.82.05c-0.55,1.51-1.28,3.14-1.85,4.34-0.57-1.2-1.3-2.83-1.85-4.34a0.981,0.981,0,0,0-1.82-.05c-0.24.57-.49,1.12-0.71,1.61-0.95-2.04-1.94-4.5-1.94-5.55,0-1.58.99-2.92,2.04-2.92l0.17,0.58a0.966,0.966,0,0,0,.93.69h6.36a0.966,0.966,0,0,0,.93-0.69l0.17-.58c1.05,0,2.04,1.34,2.04,2.92C1251.82,2911.56,1250.83,2914.02,1249.88,2916.06Z" transform="translate(-1235 -2884)"/>
</svg>
