<svg xmlns="http://www.w3.org/2000/svg" width="33" height="33" viewBox="0 0 33 33">
  <defs>
    <style>
      .cls-1 {
        fill-rule: evenodd;
      }
    </style>
  </defs>
  <path id="i12.svg" class="cls-1" d="M419.619,6198H391.381a2.387,2.387,0,0,0-2.381,2.39v0.38a2.386,2.386,0,0,0,1.741,2.3v20.23a0.829,0.829,0,0,0,.831.83h13.1v1.72a2.635,2.635,0,1,0,1.661,0v-1.72h13.1a0.829,0.829,0,0,0,.831-0.83v-20.23a2.386,2.386,0,0,0,1.741-2.3v-0.38A2.387,2.387,0,0,0,419.619,6198ZM405.5,6229.33a0.975,0.975,0,1,1,.973-0.97A0.975,0.975,0,0,1,405.5,6229.33Zm13.1-6.87H392.4v-19.3h26.2v19.3Zm1.741-21.69a0.728,0.728,0,0,1-.72.73H391.381a0.728,0.728,0,0,1-.72-0.73v-0.38a0.719,0.719,0,0,1,.72-0.72h28.238a0.719,0.719,0,0,1,.72.72v0.38Zm-25.66,19.74a0.832,0.832,0,0,0,.587-0.24l3.184-3.2,3.072,1.54a0.825,0.825,0,0,0,1.062-.28l3.146-4.74,4.72,3.16a0.8,0.8,0,0,0,.688.11,0.825,0.825,0,0,0,.528-0.46l3.247-7.15,0.65,1.45a0.836,0.836,0,0,0,.758.5,0.825,0.825,0,0,0,.339-0.08,0.834,0.834,0,0,0,.419-1.1l-1.5-3.35a0.812,0.812,0,0,0-.462-0.44,0.825,0.825,0,0,0-.636.02l-3.341,1.5a0.832,0.832,0,0,0,.679,1.52l1.578-.71-2.841,6.26-4.6-3.08a0.855,0.855,0,0,0-.624-0.12,0.8,0.8,0,0,0-.528.36l-3.2,4.81-2.952-1.48a0.819,0.819,0,0,0-.958.16l-3.607,3.62A0.83,0.83,0,0,0,394.679,6220.51Z" transform="translate(-389 -6198)"/>
</svg>
