<svg xmlns="http://www.w3.org/2000/svg" width="34" height="32" viewBox="0 0 34 32">
  <defs>
    <style>
      .cls-1 {
        fill-rule: evenodd;
      }
    </style>
  </defs>
  <path id="i14.svg" class="cls-1" d="M1204.48,6204.56v-0.61a0.855,0.855,0,1,0-1.71,0v0.63a3.68,3.68,0,0,0,0,7.06v3.67a6.127,6.127,0,0,1-1.69-1.4,0.836,0.836,0,0,0-1.2-.1,0.879,0.879,0,0,0-.11,1.22,7.129,7.129,0,0,0,3,2.15v0.65a0.855,0.855,0,1,0,1.71,0v-0.62a3.674,3.674,0,0,0,0-7.09v-3.74a5.169,5.169,0,0,1,1.73,1.18,0.845,0.845,0,0,0,1.21.02,0.878,0.878,0,0,0,.02-1.23A6.557,6.557,0,0,0,1204.48,6204.56Zm-2.64,3.55a1.937,1.937,0,0,1,.93-1.66v3.33A1.941,1.941,0,0,1,1201.84,6208.11Zm3.64,5.55a1.92,1.92,0,0,1-1,1.7v-3.39A1.9,1.9,0,0,1,1205.48,6213.66Zm11.84,2.95a3.576,3.576,0,0,0-2.41.92l-2.44-1.66a10.531,10.531,0,0,0-.52-10.82l1.65-1.34a3.588,3.588,0,0,0,1.99.6,3.766,3.766,0,1,0-3.68-3.77,3.829,3.829,0,0,0,.5,1.91l-1.54,1.25a9.911,9.911,0,0,0-13.75-.7l-3.27-3.31a3.779,3.779,0,0,0,.52-1.92,3.686,3.686,0,1,0-3.69,3.76,3.629,3.629,0,0,0,1.98-.59l3.25,3.3a10.492,10.492,0,0,0-.56,12.56l-3.08,2.63a2.693,2.693,0,0,0-1.23-.3,2.761,2.761,0,1,0,2.7,2.76,2.9,2.9,0,0,0-.27-1.21l2.98-2.54a9.939,9.939,0,0,0,7.18,3.08,9.658,9.658,0,0,0,3.73-.74l0.76,1.56a2.347,2.347,0,0,0-.67,1.64,2.271,2.271,0,1,0,2.27-2.32h-0.02l-0.81-1.66a10.118,10.118,0,0,0,2.63-2.38l2.39,1.63A3.67,3.67,0,1,0,1217.32,6216.61Zm-1.73-18.09a2.026,2.026,0,1,1-1.98,2.02A2.006,2.006,0,0,1,1215.59,6198.52Zm-24.55,24.39a1.02,1.02,0,1,1,.99-1.02A1.014,1.014,0,0,1,1191.04,6222.91Zm19.24,0.77a0.56,0.56,0,1,1-1.12,0A0.56,0.56,0,1,1,1210.28,6223.68Zm-19.6-23.89a2.026,2.026,0,1,1,1.98-2.02A2,2,0,0,1,1190.68,6199.79Zm12.95,19.68a8.582,8.582,0,1,1,8.39-8.58A8.5,8.5,0,0,1,1203.63,6219.47Zm13.69,2.92a2.021,2.021,0,1,1,1.97-2.02A2,2,0,0,1,1217.32,6222.39Z" transform="translate(-1187 -6194)"/>
</svg>
