<svg xmlns="http://www.w3.org/2000/svg" width="34" height="34" viewBox="0 0 34 34">
  <defs>
    <style>
      .cls-1 {
        fill-rule: evenodd;
      }
    </style>
  </defs>
  <path id="i16.svg" class="cls-1" d="M819.138,6540.83h-2.184a14.171,14.171,0,0,0-1.849-4.46l1.546-1.54a0.864,0.864,0,0,0,0-1.22l-3.261-3.26a0.868,0.868,0,0,0-1.219,0l-1.545,1.54a13.936,13.936,0,0,0-4.459-1.84v-2.19a0.864,0.864,0,0,0-.862-0.86H800.7a0.864,0.864,0,0,0-.862.86v2.19a13.951,13.951,0,0,0-4.46,1.84l-1.545-1.54a0.868,0.868,0,0,0-1.219,0l-3.26,3.26a0.864,0.864,0,0,0,0,1.22l1.545,1.54a14.169,14.169,0,0,0-1.848,4.46h-2.184a0.864,0.864,0,0,0-.862.86v4.62a0.864,0.864,0,0,0,.862.86h2.184a14.169,14.169,0,0,0,1.848,4.46l-1.545,1.54a0.864,0.864,0,0,0,0,1.22l3.26,3.26a0.868,0.868,0,0,0,1.219,0l1.545-1.54a13.941,13.941,0,0,0,4.46,1.84v2.19a0.864,0.864,0,0,0,.862.86h4.61a0.864,0.864,0,0,0,.862-0.86v-2.19a13.951,13.951,0,0,0,4.46-1.84l1.545,1.54a0.867,0.867,0,0,0,1.218,0l3.261-3.26a0.864,0.864,0,0,0,0-1.22l-1.545-1.54a14.169,14.169,0,0,0,1.848-4.46h2.184a0.864,0.864,0,0,0,.862-0.86v-4.62A0.864,0.864,0,0,0,819.138,6540.83Zm-0.861,4.61h-2.03a0.869,0.869,0,0,0-.849.72,12.408,12.408,0,0,1-2.106,5.08,0.869,0.869,0,0,0,.095,1.11l1.436,1.43-2.042,2.04-1.436-1.43a0.859,0.859,0,0,0-1.105-.1,12.451,12.451,0,0,1-5.082,2.11,0.86,0.86,0,0,0-.714.85v2.03h-2.888v-2.03a0.861,0.861,0,0,0-.715-0.85,12.447,12.447,0,0,1-5.081-2.11,0.86,0.86,0,0,0-1.106.1l-1.435,1.43-2.043-2.04,1.436-1.43a0.869,0.869,0,0,0,.1-1.11,12.422,12.422,0,0,1-2.106-5.08,0.868,0.868,0,0,0-.848-0.72h-2.03v-2.88h2.03a0.868,0.868,0,0,0,.848-0.72,12.422,12.422,0,0,1,2.106-5.08,0.869,0.869,0,0,0-.1-1.11l-1.436-1.43,2.043-2.04,1.435,1.43a0.86,0.86,0,0,0,1.106.1,12.452,12.452,0,0,1,5.081-2.11,0.861,0.861,0,0,0,.715-0.85v-2.03h2.888v2.03a0.86,0.86,0,0,0,.714.85,12.441,12.441,0,0,1,5.081,2.11,0.86,0.86,0,0,0,1.106-.1l1.436-1.43,2.042,2.04-1.436,1.43a0.869,0.869,0,0,0-.095,1.11,12.408,12.408,0,0,1,2.106,5.08,0.87,0.87,0,0,0,.849.72h2.03v2.88h0ZM803,6538.1a5.9,5.9,0,1,0,0,11.8h0A5.9,5.9,0,1,0,803,6538.1Zm0,10.08a4.183,4.183,0,1,1,4.181-4.18A4.182,4.182,0,0,1,803,6548.18Zm-4.885-11.78a0.84,0.84,0,0,0,.432-0.11l0.092-.06a0.856,0.856,0,0,0,.328-1.17,0.869,0.869,0,0,0-1.173-.33c-0.038.02-.075,0.05-0.113,0.07A0.857,0.857,0,0,0,798.115,6536.4Zm11.769,1.95a0.864,0.864,0,0,0,1.212.13,0.871,0.871,0,0,0,.122-1.22l-0.082-.09a0.859,0.859,0,1,0-1.32,1.1A0.642,0.642,0,0,0,809.884,6538.35Zm-16.357,3.12a1.014,1.014,0,0,0,.295.05,0.865,0.865,0,0,0,.81-0.57c0.012-.03.024-0.06,0.036-0.1a0.862,0.862,0,0,0-.5-1.11,0.873,0.873,0,0,0-1.111.5c-0.015.04-.03,0.09-0.045,0.13A0.859,0.859,0,0,0,793.527,6541.47Zm0.57,2.55V6544c0-.04,0-0.07,0-0.11a0.867,0.867,0,0,0-.852-0.87h-0.01a0.862,0.862,0,0,0-.861.85c0,0.04,0,.09,0,0.13v0.02A0.862,0.862,0,0,0,794.1,6544.02Zm7.2-8.78a0.752,0.752,0,0,0,.149-0.01l0.108-.02a0.862,0.862,0,1,0-.281-1.7l-0.123.02a0.868,0.868,0,0,0-.7,1A0.857,0.857,0,0,0,801.3,6535.24Zm10.066,5.71a0.878,0.878,0,0,1,.035.1,0.862,0.862,0,0,0,.814.57,0.706,0.706,0,0,0,.283-0.05,0.85,0.85,0,0,0,.53-1.09c-0.014-.04-0.029-0.08-0.044-0.12A0.861,0.861,0,1,0,811.365,6540.95Zm-3.918-4.67,0.092,0.06a0.878,0.878,0,0,0,.44.12,0.86,0.86,0,0,0,.441-1.6c-0.037-.02-0.074-0.05-0.111-0.07a0.872,0.872,0,0,0-1.177.32A0.852,0.852,0,0,0,807.447,6536.28Zm-12.809,10.78a0.867,0.867,0,0,1-.036-0.1,0.861,0.861,0,0,0-1.625.57c0.014,0.04.028,0.08,0.043,0.12a0.864,0.864,0,0,0,.809.57,1.021,1.021,0,0,0,.3-0.05A0.868,0.868,0,0,0,794.638,6547.06Zm9.9-11.83a0.376,0.376,0,0,1,.1.02,0.876,0.876,0,0,0,.161.01,0.863,0.863,0,0,0,.16-1.71,0.559,0.559,0,0,1-.128-0.02A0.863,0.863,0,0,0,804.543,6535.23Zm0.017,17.54a0.382,0.382,0,0,0-.1.02,0.85,0.85,0,0,0-.712.98,0.861,0.861,0,0,0,.849.73c0.046,0,.093-0.01.139-0.01l0.129-.03A0.858,0.858,0,1,0,804.56,6552.77Zm7.915-6.25a0.864,0.864,0,0,0-1.1.52c-0.012.03-.024,0.06-0.036,0.1a0.862,0.862,0,0,0,.5,1.11,1.069,1.069,0,0,0,.3.05,0.863,0.863,0,0,0,.806-0.55c0.015-.04.03-0.08,0.045-0.13A0.859,0.859,0,0,0,812.475,6546.52Zm-1.435,3.09a0.852,0.852,0,0,0-1.213.11,0.508,0.508,0,0,0-.068.08,0.86,0.86,0,0,0,1.306,1.12c0.028-.03.056-0.07,0.084-0.1A0.858,0.858,0,0,0,811.04,6549.61Zm1.723-6.48a0.866,0.866,0,0,0-.861.87v0.1a0.87,0.87,0,0,0,.854.87h0.008a0.86,0.86,0,0,0,.861-0.85v-0.13A0.858,0.858,0,0,0,812.763,6543.13Zm-16.641,6.52a0.87,0.87,0,0,0-1.212-.12,0.859,0.859,0,0,0-.121,1.21,0.787,0.787,0,0,0,.083.1,0.838,0.838,0,0,0,.659.31,0.887,0.887,0,0,0,.554-0.2,0.868,0.868,0,0,0,.1-1.22A0.565,0.565,0,0,1,796.122,6549.65Zm11.339,2.06-0.094.05a0.86,0.86,0,0,0,.426,1.61,0.816,0.816,0,0,0,.425-0.11l0.109-.06A0.862,0.862,0,1,0,807.461,6551.71Zm-11.3-14.73a0.862,0.862,0,0,0-1.215.09,0.881,0.881,0,0,1-.083.1,0.856,0.856,0,0,0,.106,1.21,0.842,0.842,0,0,0,.553.21,0.874,0.874,0,0,0,.661-0.31,0.569,0.569,0,0,1,.069-0.08A0.868,0.868,0,0,0,796.157,6536.98Zm2.4,14.74-0.1-.06a0.864,0.864,0,0,0-.875,1.49l0.108,0.06a0.848,0.848,0,0,0,.43.12A0.863,0.863,0,0,0,798.562,6551.72Zm2.9,1.05-0.108-.02a0.864,0.864,0,0,0-.311,1.7l0.123,0.02a0.752,0.752,0,0,0,.149.01,0.857,0.857,0,0,0,.848-0.71A0.869,0.869,0,0,0,801.467,6552.77Z" transform="translate(-786 -6527)"/>
</svg>
