<svg id="i19.svg" xmlns="http://www.w3.org/2000/svg" width="41" height="21" viewBox="0 0 41 21">
  <defs>
    <style>
      .cls-1 {
        fill-rule: evenodd;
      }
    </style>
  </defs>
  <path id="Forma_1_копия_16" data-name="Forma 1 копия 16" class="cls-1" d="M980.033,7717a0.764,0.764,0,0,1-.359-0.09l-5.862-3.13-5.861,3.13a0.751,0.751,0,0,1-.813-0.06,0.785,0.785,0,0,1-.307-0.77l1.119-6.62-4.742-4.69a0.8,0.8,0,0,1-.195-0.81,0.771,0.771,0,0,1,.623-0.53l6.553-.97,2.931-6.02a0.765,0.765,0,0,1,1.385,0l2.93,6.02,6.554,0.97a0.772,0.772,0,0,1,.623.53,0.8,0.8,0,0,1-.195.81l-4.742,4.69,1.119,6.62a0.785,0.785,0,0,1-.307.77A0.761,0.761,0,0,1,980.033,7717Zm-14.627-12.25,3.912,3.88a0.767,0.767,0,0,1,.222.69l-0.923,5.46,4.836-2.58a0.763,0.763,0,0,1,.719,0l4.836,2.58-0.924-5.46a0.77,0.77,0,0,1,.222-0.69l3.913-3.88-5.407-.79a0.786,0.786,0,0,1-.582-0.43l-2.418-4.98-2.418,4.98a0.784,0.784,0,0,1-.581.43Z" transform="translate(-963 -7696)"/>
  <path id="Forma_1_копия_17" data-name="Forma 1 копия 17" class="cls-1" d="M999.384,7717a0.764,0.764,0,0,1-.359-0.09l-5.862-3.13-5.861,3.13a0.751,0.751,0,0,1-.813-0.06,0.785,0.785,0,0,1-.307-0.77l1.119-6.62-4.742-4.69a0.8,0.8,0,0,1-.195-0.81,0.771,0.771,0,0,1,.623-0.53l6.553-.97,2.931-6.02a0.765,0.765,0,0,1,1.385,0l2.93,6.02,6.554,0.97a0.768,0.768,0,0,1,.62.53,0.8,0.8,0,0,1-.19.81l-4.744,4.69,1.124,6.62a0.8,0.8,0,0,1-.312.77A0.761,0.761,0,0,1,999.384,7717Zm-14.627-12.25,3.913,3.88a0.772,0.772,0,0,1,.222.69l-0.924,5.46,4.836-2.58a0.763,0.763,0,0,1,.719,0l4.836,2.58-0.924-5.46a0.77,0.77,0,0,1,.222-0.69l3.913-3.88-5.407-.79a0.786,0.786,0,0,1-.582-0.43l-2.418-4.98-2.418,4.98a0.784,0.784,0,0,1-.581.43Z" transform="translate(-963 -7696)"/>
</svg>
