<svg xmlns="http://www.w3.org/2000/svg" width="35.97" height="37" viewBox="0 0 35.97 37">
  <defs>
    <style>
      .cls-1 {
        fill: #222;
        fill-rule: evenodd;
      }
    </style>
  </defs>
  <path id="i2.svg" class="cls-1" d="M1236.13,735.668a5.835,5.835,0,1,0-5.72-5.835A5.79,5.79,0,0,0,1236.13,735.668Zm0-9.725a3.892,3.892,0,1,1-3.81,3.89A3.858,3.858,0,0,1,1236.13,725.943Zm17.74,9.725a5.835,5.835,0,1,0-5.73-5.835A5.788,5.788,0,0,0,1253.87,735.668Zm0-9.725a3.892,3.892,0,1,1-3.82,3.89A3.856,3.856,0,0,1,1253.87,725.943Zm9.11,17.238-0.97-4.965a3.5,3.5,0,0,0-3.31-2.762h-2.11a0.926,0.926,0,0,0-.67.285l-2.05,2.09-2.05-2.09a0.949,0.949,0,0,0-.68-0.285h-2.11a3.226,3.226,0,0,0-1.63.461,6.948,6.948,0,0,0-4.99-.1,3.146,3.146,0,0,0-1.44-.359h-2.11a0.949,0.949,0,0,0-.68.285l-2.05,2.09-2.05-2.09a0.926,0.926,0,0,0-.67-0.285h-2.11a3.5,3.5,0,0,0-3.31,2.762l-0.97,4.965a0.977,0.977,0,0,0,.2.807,0.947,0.947,0,0,0,.74.355h9.93a7.058,7.058,0,0,0,13.77,0h10.38a0.947,0.947,0,0,0,.74-0.355A0.977,0.977,0,0,0,1262.98,743.181Zm-33.11-4.584a1.564,1.564,0,0,1,1.43-1.2h1.71l2.45,2.493a0.94,0.94,0,0,0,1.35,0l2.45-2.493h0.63a7.255,7.255,0,0,0-2.2,5h-8.57Zm14.9,9.307a5.282,5.282,0,1,1,5.18-5.281A5.233,5.233,0,0,1,1244.77,747.9Zm7.09-5.5a7.255,7.255,0,0,0-2.2-5h1.08l2.45,2.493a0.94,0.94,0,0,0,1.35,0l2.45-2.493h1.71a1.564,1.564,0,0,1,1.43,1.2l0.75,3.8h-9.02Zm3.11,11.055a4.2,4.2,0,0,0-3.98-3.329h-2.71a0.946,0.946,0,0,0-.68.286l-2.83,2.883-2.82-2.883a0.963,0.963,0,0,0-.68-0.286h-2.71a4.188,4.188,0,0,0-3.98,3.329l-1.26,6.384a1.013,1.013,0,0,0,.2.806,0.944,0.944,0,0,0,.74.355h21.03a0.956,0.956,0,0,0,.93-1.161Zm-19.55,5.6,1.03-5.223a2.313,2.313,0,0,1,2.11-1.766h2.31l3.23,3.286a0.94,0.94,0,0,0,1.35,0l3.22-3.286h2.32a2.323,2.323,0,0,1,2.11,1.766l1.02,5.223h-18.7Z" transform="translate(-1227.03 -724)"/>
</svg>
