<svg xmlns="http://www.w3.org/2000/svg" width="35.03" height="33" viewBox="0 0 35.03 33">
  <defs>
    <style>
      .cls-1 {
        fill-rule: evenodd;
      }
    </style>
  </defs>
  <path id="i20.svg" class="cls-1" d="M1392.54,7721a1.3,1.3,0,0,1-.58-0.14l-9.48-4.92-9.48,4.92a1.241,1.241,0,0,1-1.31-.1,1.225,1.225,0,0,1-.5-1.2l1.81-10.41-7.66-7.37a1.216,1.216,0,0,1-.32-1.26,1.235,1.235,0,0,1,1.01-.84l10.59-1.52,4.74-9.47a1.254,1.254,0,0,1,2.24,0l4.74,9.47,10.59,1.52a1.235,1.235,0,0,1,1.01.84,1.216,1.216,0,0,1-.32,1.26l-7.66,7.37,1.81,10.41a1.23,1.23,0,0,1-.5,1.21A1.288,1.288,0,0,1,1392.54,7721Zm-23.65-19.24,6.33,6.08a1.222,1.222,0,0,1,.35,1.09l-1.49,8.59,7.82-4.06a1.252,1.252,0,0,1,1.16,0l7.82,4.06-1.49-8.59a1.2,1.2,0,0,1,.36-1.09l6.32-6.08-8.74-1.26a1.246,1.246,0,0,1-.94-0.67l-3.91-7.82-3.91,7.82a1.246,1.246,0,0,1-.94.67Z" transform="translate(-1364.97 -7688)"/>
</svg>
