<svg xmlns="http://www.w3.org/2000/svg" width="32" height="30" viewBox="0 0 32 30">
  <defs>
    <style>
      .cls-1 {
        fill: #222;
        fill-rule: evenodd;
      }
    </style>
  </defs>
  <path id="i21.svg" class="cls-1" d="M1238.16,1040.35a2.784,2.784,0,0,0,.58-0.06,3.019,3.019,0,0,0,1.93-1.28,3.087,3.087,0,0,0,.46-2.29,3.265,3.265,0,0,0-.48-1.15l3.2-3.73a2.9,2.9,0,0,0,1.54.43,2.782,2.782,0,0,0,.58-0.05,3.049,3.049,0,0,0,2.43-3.17l4.88-1.99a2.977,2.977,0,0,0,2.13.89,2.746,2.746,0,0,0,.57-0.05,3.051,3.051,0,0,0,1.69-5l2.21-4.94,0.6,1.36a0.793,0.793,0,0,0,.73.48,0.876,0.876,0,0,0,.32-0.07,0.809,0.809,0,0,0,.4-1.06l-1.41-3.2a0.841,0.841,0,0,0-.45-0.42,0.781,0.781,0,0,0-.6.02l-3.16,1.43a0.8,0.8,0,0,0-.4,1.06,0.8,0.8,0,0,0,1.05.4l1.47-.66-2.1,4.71a2.817,2.817,0,0,0-.92-0.15,2.856,2.856,0,0,0-.58.06,3.042,3.042,0,0,0-2.38,3.57,1.046,1.046,0,0,0,.04.17l-4.59,1.87a3.025,3.025,0,0,0-2.5-1.35,2.856,2.856,0,0,0-.58.06,3.042,3.042,0,0,0-2.38,3.57,2.914,2.914,0,0,0,.31.87l-3.32,3.86a2.944,2.944,0,0,0-1.26-.28,3.785,3.785,0,0,0-.58.05,3.025,3.025,0,0,0-1.92,1.29,3.078,3.078,0,0,0-.46,2.29A3.026,3.026,0,0,0,1238.16,1040.35Zm16.98-16.86a1.229,1.229,0,0,1,.27-0.02,1.439,1.439,0,0,1,.27,2.85,1.241,1.241,0,0,1-.27.03A1.445,1.445,0,0,1,1255.14,1023.49Zm-10.02,4.32a1.333,1.333,0,0,1,.28-0.03,1.443,1.443,0,0,1,1.4,1.17,1.458,1.458,0,0,1-.22,1.08,1.4,1.4,0,0,1-.91.61,1.333,1.333,0,0,1-.28.03,1.422,1.422,0,0,1-1.39-1.17A1.438,1.438,0,0,1,1245.12,1027.81Zm-8.14,8.69a1.424,1.424,0,0,1,.92-0.61,1.241,1.241,0,0,1,.27-0.03,1.433,1.433,0,0,1,1.4,1.17,1.468,1.468,0,0,1-.22,1.08,1.4,1.4,0,0,1-.91.61,1.265,1.265,0,0,1-.28.03A1.454,1.454,0,0,1,1236.98,1036.5Zm24.18,5.49h-27.87v-24.83a0.794,0.794,0,0,0-.79-0.8,0.8,0.8,0,0,0-.8.8v24.83h-0.91a0.8,0.8,0,0,0,0,1.6h0.91v0.61a0.8,0.8,0,0,0,.8.8,0.794,0.794,0,0,0,.79-0.8v-0.61h27.87A0.8,0.8,0,0,0,1261.16,1041.99Z" transform="translate(-1230 -1015)"/>
</svg>
