<svg xmlns="http://www.w3.org/2000/svg" width="37" height="37" viewBox="0 0 37 37">
  <defs>
    <style>
      .cls-1 {
        fill-rule: evenodd;
      }
    </style>
  </defs>
  <path id="i22.svg" class="cls-1" d="M423.01,849.5A18.51,18.51,0,1,0,404.5,868.01,18.531,18.531,0,0,0,423.01,849.5ZM404.5,866.415A16.915,16.915,0,1,1,421.413,849.5,16.934,16.934,0,0,1,404.5,866.415Zm3.041-15.376a0.825,0.825,0,0,1-.244.047A0.838,0.838,0,0,0,407.54,851.039Zm-0.192-15.02a0.8,0.8,0,0,0-.873.588l-2.107,7.986a0.8,0.8,0,1,0,1.543.407l0.538-2.038v6.479l0.854,0.06a0.8,0.8,0,0,1,.735.824c0-.01.007-0.018,0.007-0.028V836.81A0.8,0.8,0,0,0,407.348,836.019Zm0.65,14.5a0.825,0.825,0,0,1-.03.111A0.762,0.762,0,0,0,408,850.518Zm-0.208.363,0-.007-0.006.007h0Zm-4.093-.034,3.493,0.247-3.5-.247h0Zm3.548,0.248h0Zm0.544-.214a0.828,0.828,0,0,1-.249.158A0.771,0.771,0,0,0,407.789,850.881ZM402.957,850a0.8,0.8,0,0,1,.853-0.739l2.639,0.186h0l-7.894-.558,5.346-1.011a0.8,0.8,0,0,0-.3-1.568l-11.4,2.156a0.8,0.8,0,0,0,.092,1.58l11.4,0.806A0.8,0.8,0,0,1,402.957,850Zm4.29,1.1c0.017,0,.033-0.008.049-0.009-0.016,0-.033.009-0.049,0.009h0Zm0.721-.466a0.759,0.759,0,0,1-.173.245A0.784,0.784,0,0,0,407.968,850.629Zm0.073-.276a0.133,0.133,0,0,0,0-.028,0.789,0.789,0,0,1-.04.193A0.69,0.69,0,0,0,408.041,850.353ZM407.3,849.5l-0.854-.06h0l-2.639-.186a0.8,0.8,0,0,0-.115,1.591l3.5,0.248h0.056c0.017,0,.033-0.009.05-0.01a0.76,0.76,0,0,0,.243-0.047,0.773,0.773,0,0,0,.25-0.158,0.056,0.056,0,0,0,0-.008,0.782,0.782,0,0,0,.173-0.244,0.617,0.617,0,0,0,.03-0.112A0.765,0.765,0,0,0,407.3,849.5Z" transform="translate(-386 -831)"/>
</svg>
