<svg xmlns="http://www.w3.org/2000/svg" width="24" height="38" viewBox="0 0 24 38">
  <defs>
    <style>
      .cls-1 {
        fill: #222;
        fill-rule: evenodd;
      }
    </style>
  </defs>
  <path id="i3.svg" class="cls-1" d="M836.819,1027.51v-0.49a3.615,3.615,0,0,0,0-6.97v-3.31a5.282,5.282,0,0,1,1.519,1.05,0.945,0.945,0,0,0,1.353-1.32,6.527,6.527,0,0,0-2.872-1.72v-0.49a0.942,0.942,0,1,0-1.884,0v0.51a3.613,3.613,0,0,0,0,6.93v3.22a6.245,6.245,0,0,1-1.477-1.23,0.936,0.936,0,0,0-1.328-.11,0.957,0.957,0,0,0-.107,1.34,7.083,7.083,0,0,0,2.912,2.06v0.53A0.942,0.942,0,1,0,836.819,1027.51Zm0.77-3.98a1.7,1.7,0,0,1-.77,1.43v-2.85A1.7,1.7,0,0,1,837.589,1023.53Zm-3.359-5.3a1.716,1.716,0,0,1,.7-1.38v2.77A1.72,1.72,0,0,1,834.23,1018.23Zm0.7,23.64v5.18a0.942,0.942,0,1,0,1.884,0v-1.09H843a5.03,5.03,0,0,0,5-5.04v-4.09a0.943,0.943,0,0,0-.942-0.95H843a5.024,5.024,0,0,0-5,5.04v3.14H836.82V1031.6a10.711,10.711,0,1,0-1.885,0v8.37h-0.941v-3.14a5.024,5.024,0,0,0-5-5.04h-4.055a0.932,0.932,0,0,0-.666.28,0.955,0.955,0,0,0-.276.67v4.09a5.024,5.024,0,0,0,5,5.04h5.938Zm-5.938-1.9a3.131,3.131,0,0,1-3.112-3.14v-3.14H829a3.131,3.131,0,0,1,3.112,3.14v3.14H829Zm-1.946-19.15a8.826,8.826,0,1,1,8.826,8.92A8.883,8.883,0,0,1,827.051,1020.82Zm19.064,20.1a3.13,3.13,0,0,1-3.111,3.14h-3.113v-3.14a3.131,3.131,0,0,1,3.112-3.14h3.112v3.14Z" transform="translate(-824 -1010)"/>
</svg>
