<svg xmlns="http://www.w3.org/2000/svg" width="35" height="35" viewBox="0 0 35 35">
  <defs>
    <style>
      .cls-1 {
        fill: #222;
        fill-rule: evenodd;
      }
    </style>
  </defs>
  <path id="i4.svg" class="cls-1" d="M1262.93,1014.29a0.865,0.865,0,0,0-.81-0.55h-2.81v-2.85a0.894,0.894,0,0,0-.55-0.82,0.877,0.877,0,0,0-.96.19l-2.89,2.92a17.028,17.028,0,0,0-9.68-3.01,17.378,17.378,0,1,0,14.54,8.09l2.97-3A0.9,0.9,0,0,0,1262.93,1014.29Zm-5.39-.03-2.85,2.88v-1.21l2.85-2.88v1.21Zm-7.6,13.32a4.71,4.71,0,1,1-4.71-4.76,4.664,4.664,0,0,1,2.86.98l-1.54,1.56a2.6,2.6,0,1,0,1.24,2.22,2.413,2.413,0,0,0-.13-0.81l1.61-1.63A4.7,4.7,0,0,1,1249.94,1027.58Zm-0.59-5.05a6.446,6.446,0,0,0-4.12-1.5,6.538,6.538,0,1,0,5.32,2.82l2.73-2.77a10.283,10.283,0,1,1-8.05-3.92,10.235,10.235,0,0,1,6.84,2.63Zm11.34,5.05a15.461,15.461,0,1,1-15.46-15.62,15.23,15.23,0,0,1,8.4,2.51l-0.45.46a0.877,0.877,0,0,0-.26.63v2.62a11.936,11.936,0,0,0-7.69-2.8,12.175,12.175,0,1,0,9.6,4.81h2.67a0.9,0.9,0,0,0,.62-0.26l0.37-.37A15.707,15.707,0,0,1,1260.69,1027.58Zm-3.56-9.18h-1.19l2.85-2.88h1.19Z" transform="translate(-1228 -1010)"/>
</svg>
