<svg xmlns="http://www.w3.org/2000/svg" width="28" height="31" viewBox="0 0 28 31">
  <defs>
    <style>
      .cls-1 {
        fill-rule: evenodd;
      }
    </style>
  </defs>
  <path id="i5.svg" class="cls-1" d="M414.875,1462.34l-4.754-1.23a0.622,0.622,0,0,0-.06-0.07l-1.559-1.61a0.5,0.5,0,0,0-.253-0.14,10.184,10.184,0,0,0,5.593-9.15,9.846,9.846,0,1,0-19.684,0,10.184,10.184,0,0,0,5.593,9.15,0.5,0.5,0,0,0-.253.14l-1.559,1.61a0.609,0.609,0,0,0-.059.07l-4.755,1.23c-2.015.52-3.125,1.79-3.125,3.59v3.5a1.554,1.554,0,0,0,1.527,1.57h24.946a1.554,1.554,0,0,0,1.527-1.57v-3.5C418,1464.13,416.89,1462.86,414.875,1462.34Zm-5.762-.86c-0.374.69-1.29,2.39-2.148,3.98a0.033,0.033,0,0,1-.018.02,0.068,0.068,0,0,1-.027-0.01l-1.088-.74a0.036,0.036,0,0,0,0-.01l-1.065-.73,3.393-3.49Zm-5.633,6.31h1.04c0.036,0,.072-0.01.107-0.01l0.366,2.22h-1.986l0.366-2.22C403.408,1467.78,403.444,1467.79,403.48,1467.79Zm1.592-1.58a0.558,0.558,0,0,1-.552.57h-1.04a0.558,0.558,0,0,1-.552-0.57v-0.8l1.072-.74,1.072,0.74v0.8Zm-9.94-16.07a8.872,8.872,0,1,1,8.868,9.14A9.017,9.017,0,0,1,395.132,1450.14ZM404,1460.29a9.565,9.565,0,0,0,3.707-.75L404,1463.36l-3.707-3.82A9.565,9.565,0,0,0,404,1460.29Zm-4.158.21,3.393,3.49-1.065.73a0.036,0.036,0,0,0,0,.01l-1.088.74a0.068,0.068,0,0,1-.027.01,0.033,0.033,0,0,1-.018-0.02c-0.858-1.59-1.774-3.29-2.148-3.98Zm-8.868,8.93v-3.5c0-1.33.8-2.21,2.387-2.62l4.741-1.22c0.281,0.52.863,1.6,2.081,3.86a0.99,0.99,0,0,0,.641.5,0.935,0.935,0,0,0,.235.03,1.03,1.03,0,0,0,.562-0.17l0.333-.23v0.13a1.576,1.576,0,0,0,.5,1.16l-0.433,2.63h-6.366v-2.72a0.487,0.487,0,1,0-.974,0V1470h-3.151A0.565,0.565,0,0,1,390.974,1469.43Zm26.051,0a0.564,0.564,0,0,1-.552.57h-3.151v-2.72a0.487,0.487,0,1,0-.974,0V1470h-6.367l-0.432-2.63a1.576,1.576,0,0,0,.5-1.16v-0.13l0.333,0.23a1.029,1.029,0,0,0,.561.17,0.943,0.943,0,0,0,.236-0.03,0.99,0.99,0,0,0,.641-0.5c1.216-2.25,1.8-3.33,2.08-3.86l4.742,1.22c1.584,0.41,2.386,1.29,2.386,2.62v3.5Zm-5.262-19.29a7.767,7.767,0,1,0-7.763,8A7.894,7.894,0,0,0,411.763,1450.14Zm-14.534.51h1.054a0.505,0.505,0,0,0,0-1.01h-1.054a6.911,6.911,0,0,1,6.284-6.48v1.09a0.487,0.487,0,1,0,.974,0v-1.09a6.911,6.911,0,0,1,6.284,6.48h-1.054a0.505,0.505,0,0,0,0,1.01h1.039c0.005,0,.01-0.01.015-0.01a6.9,6.9,0,0,1-6.284,6.48v-1.08a0.488,0.488,0,1,0-.974,0v1.08A6.9,6.9,0,0,1,397.229,1450.65Zm6.093,0.9a1.42,1.42,0,0,0,.678.17,1.536,1.536,0,0,0,1.447-1.07h2.191a0.505,0.505,0,0,0,0-1.01h-2.191a2.083,2.083,0,0,0-.08-0.2l2.616-2.69a0.513,0.513,0,0,0,0-.71,0.471,0.471,0,0,0-.689,0l-2.616,2.69a1.513,1.513,0,0,0-2.124.91h-0.633a0.505,0.505,0,0,0,0,1.01h0.632a1.923,1.923,0,0,0,.08.19l-0.852.88a0.513,0.513,0,0,0,0,.71,0.471,0.471,0,0,0,.689,0Zm0.678-1.98a0.565,0.565,0,0,1,.552.57,0.552,0.552,0,1,1-1.1,0A0.564,0.564,0,0,1,404,1449.57Z" transform="translate(-390 -1440)"/>
</svg>
