<svg xmlns="http://www.w3.org/2000/svg" width="34" height="35" viewBox="0 0 34 35">
  <defs>
    <style>
      .cls-1 {
        fill-rule: evenodd;
      }
    </style>
  </defs>
  <path id="i6.svg" class="cls-1" d="M817.415,1469.83h-3.971v-1.21c0-2.75-.731-4.88-2.172-6.31a6.388,6.388,0,0,0-4.238-1.84h-2.926v-1.87a8.243,8.243,0,0,0,3.771-3.2,9.72,9.72,0,0,0,1.388-3.51,0.68,0.68,0,0,0,.006-0.09v-0.12a2.09,2.09,0,0,0,1.051-.63,4.021,4.021,0,0,0,.72-2.95,1.519,1.519,0,0,0-.577-1.08,2.257,2.257,0,0,0-1.194-.41v-5.02a3.74,3.74,0,0,0-2.323-3.77,0.635,0.635,0,0,1-.439-0.56,1.182,1.182,0,0,1,.055-0.46,0.586,0.586,0,0,0-.96-0.63c-0.835.85-1.668,0.87-3.474,0.82a25.958,25.958,0,0,0-4.571.21,5.23,5.23,0,0,0-4.361,3.36,7.123,7.123,0,0,0-.483,2.72v3.33a2.279,2.279,0,0,0-1.2.41,1.521,1.521,0,0,0-.576,1.08,4.021,4.021,0,0,0,.72,2.95,2.049,2.049,0,0,0,1.065.63v0.12a0.68,0.68,0,0,0,.006.09,9.72,9.72,0,0,0,1.388,3.51,8.243,8.243,0,0,0,3.771,3.2v1.87H794.97a6.38,6.38,0,0,0-4.242,1.84c-1.442,1.43-2.173,3.56-2.173,6.31v1.21h-3.97a0.585,0.585,0,0,0,0,1.17h32.83A0.585,0.585,0,0,0,817.415,1469.83Zm-10.377-8.19h0a5.278,5.278,0,0,1,3.41,1.5,7.463,7.463,0,0,1,1.827,5.48v1.21h-9.26a0.556,0.556,0,0,0-.019-0.13l-1.121-4.27,0.8,0.26a0.572,0.572,0,0,0,.181.03,0.584,0.584,0,0,0,.442-0.2l0.609-.71,1.059-.65a0.588,0.588,0,0,0,.271-0.6l-0.333-1.92h2.13Zm-8.827.79a3.147,3.147,0,0,0,2.209,1.69l-1.024.33-0.414-.48a0.7,0.7,0,0,0-.137-0.11l-0.8-.49Zm5.628-.11,0.182,1.05-0.8.49a0.7,0.7,0,0,0-.137.11l-0.414.48-1.049-.34A3.127,3.127,0,0,0,803.839,1462.32Zm-2.017,7.51h-1.57l0.785-3Zm8.06-21.62a2.878,2.878,0,0,1-.425,2.05,0.919,0.919,0,0,1-.184.16v-2.63a0.986,0.986,0,0,1,.478.16A0.335,0.335,0,0,1,809.882,1448.21Zm-15.6-7.22a4.049,4.049,0,0,1,3.441-2.62,23.574,23.574,0,0,1,4.375-.2,6.846,6.846,0,0,0,3.324-.42,1.843,1.843,0,0,0,1.052,1.15,2.568,2.568,0,0,1,1.627,2.69v3.29a3.191,3.191,0,0,1-2.274-1.02,3.571,3.571,0,0,1-.592-2.62,0.584,0.584,0,0,0-.33-0.64,0.564,0.564,0,0,0-.7.17,4.346,4.346,0,0,1-4.488,1.51,9.472,9.472,0,0,1-2.73-.98,0.55,0.55,0,0,0-.513-0.04,0.555,0.555,0,0,0-.346.38,3.909,3.909,0,0,1-2.244,2.74v-1.12c0-.01,0-0.02,0-0.03A5.885,5.885,0,0,1,794.286,1440.99Zm-1.757,9.27a2.878,2.878,0,0,1-.425-2.05,0.335,0.335,0,0,1,.131-0.26,1.035,1.035,0,0,1,.492-0.16v2.64A0.992,0.992,0,0,1,792.529,1450.26Zm2.6,4.54a8.787,8.787,0,0,1-1.231-3.04v-6.14a4.8,4.8,0,0,0,3.127-2.99,10.053,10.053,0,0,0,2.46.8,5.77,5.77,0,0,0,4.588-.9,4.058,4.058,0,0,0,.855,2.07,4.316,4.316,0,0,0,3.18,1.45v5.71a8.821,8.821,0,0,1-1.232,3.04,7.127,7.127,0,0,1-5.819,3.3h-0.108A7.13,7.13,0,0,1,795.126,1454.8Zm5.763,4.47h0.222a9.957,9.957,0,0,0,1.828-.28v2.06a1.94,1.94,0,1,1-3.879,0v-2.06A9.982,9.982,0,0,0,800.889,1459.27Zm-11.165,9.35c0-6.9,5.026-6.98,5.242-6.98h2.195l-0.333,1.92a0.588,0.588,0,0,0,.271.6l1.059,0.65,0.609,0.71a0.584,0.584,0,0,0,.442.2,0.562,0.562,0,0,0,.18-0.03l0.81-.27-1.122,4.28a0.556,0.556,0,0,0-.019.13h-9.334v-1.21Zm7.129-22.4a0.705,0.705,0,1,1-.7.7A0.7,0.7,0,0,1,796.853,1446.22Zm8.294,0a0.705,0.705,0,1,1-.7.7A0.7,0.7,0,0,1,805.147,1446.22Zm-0.526,7.96a0.582,0.582,0,0,0-.088-0.82,0.57,0.57,0,0,0-.821.09,3.552,3.552,0,0,1-2.568.77,4.567,4.567,0,0,1-2.921-.84,0.575,0.575,0,0,0-.821.04,0.589,0.589,0,0,0,.038.83,5.683,5.683,0,0,0,3.7,1.15C803.576,1455.4,804.521,1454.31,804.621,1454.18Zm-3.772-3.13h0.3a1.406,1.406,0,0,0,1.4-1.41,0.585,0.585,0,0,0-1.169,0,0.239,0.239,0,0,1-.233.24h-0.3a0.238,0.238,0,0,1-.233-0.24,0.585,0.585,0,0,0-1.169,0A1.406,1.406,0,0,0,800.849,1451.05Z" transform="translate(-784 -1436)"/>
</svg>
