<svg xmlns="http://www.w3.org/2000/svg" width="27" height="34" viewBox="0 0 27 34">
  <defs>
    <style>
      .cls-1 {
        fill-rule: evenodd;
      }
    </style>
  </defs>
  <path id="i7.svg" class="cls-1" d="M1196.09,1442.87l6.82,0.92v1.16h1.05v-2.03l-8.92-1.21v3.24h1.05v-2.08Zm15.72,11.44-7.85-2.12v-2.28h-0.01a5.151,5.151,0,0,0,1.14-3.2v-0.49l1.12-1.06v-5a3.254,3.254,0,0,0-3.34-3.16h-6.74a3.254,3.254,0,0,0-3.34,3.16v5l1.12,1.06v0.33a5.335,5.335,0,0,0,1.19,3.36h-0.06v2.28l-7.85,2.12L1186,1471h27Zm0.06,15.69h-3.41v-10.88l2.42-3.05Zm-15.78-19.13a5.626,5.626,0,0,0,3.04,1.12c0.12,0.01.25,0.01,0.38,0.01a5.707,5.707,0,0,0,3.4-1.1v1.38l-3.41,1.84-3.41-1.84v-1.41Zm4.31,12.86-1.74-1.65,0.06-1.57,1.63,1.89Zm-1.89,2.28,2.05,1.94,0.05,1.3-2.14-2.03Zm0.05-1.36,0.05-1.21,1.84,1.75,0.05,1.3Zm0.22-5.64h0l0.04-1.22,1.4,1.33,0.07,1.63Zm1.33-2.79,0.06,1.43-1.29-1.22v-0.21l0.62-.72ZM1197.3,1470h-5.71v-11.76l-2.97-3.28,4.57-1.23,4.08,4.41,0.51-.61Zm1.11-1.42,1.5,1.42h-1.55Zm2.81-11.05,0.51,0.61,4.08-4.41,4.62,1.25-3.02,3.81V1470h-5.72Zm3.47-4.11-2.92,3.16-1.47-1.74,3.21-1.74Zm-10.85-8.68v-4.58a2.233,2.233,0,0,1,2.29-2.16h6.74a2.233,2.233,0,0,1,2.29,2.16v4.58l-1.13,1.07v0.9a4.12,4.12,0,0,1-1.43,3.13,4.632,4.632,0,0,1-3.4,1.15,4.469,4.469,0,0,1-4.23-4.44v-0.74Zm1.65,8.36,3.21,1.74-1.47,1.74-2.92-3.16Zm-7.36,2.85,2.41,2.66V1470h-3.41Z" transform="translate(-1186 -1437)"/>
</svg>
