<svg xmlns="http://www.w3.org/2000/svg" width="34" height="33" viewBox="0 0 34 33">
  <defs>
    <style>
      .cls-1 {
        fill-rule: evenodd;
      }
    </style>
  </defs>
  <path id="i8.svg" class="cls-1" d="M852.254,2522.2h-1.893v-3.94a1.728,1.728,0,0,0,.959-1.55v-3.02a4.038,4.038,0,0,0-1.88-3.42,3.036,3.036,0,1,0-4.229,0,4.04,4.04,0,0,0-1.879,3.42v3.02a1.727,1.727,0,0,0,.958,1.55v3.94h-2.872a0.751,0.751,0,0,0-.746.75v4.01h-1.547v-3.94a1.727,1.727,0,0,0,.958-1.55v-3.01a4.04,4.04,0,0,0-1.879-3.42,3.087,3.087,0,0,0,.921-2.2,3.036,3.036,0,1,0-6.072,0,3.084,3.084,0,0,0,.922,2.2,4.038,4.038,0,0,0-1.88,3.42v3.01a1.729,1.729,0,0,0,.958,1.55v3.94h-2.471a0.753,0.753,0,0,0-.746.76v4.01h-1.948v-3.94a1.728,1.728,0,0,0,.959-1.55v-3.02a4.038,4.038,0,0,0-1.88-3.42,3.036,3.036,0,1,0-4.229,0,4.04,4.04,0,0,0-1.879,3.42v3.02a1.727,1.727,0,0,0,.958,1.55v3.94h-2.071a0.744,0.744,0,0,0-.746.75v4.77a0.746,0.746,0,1,0,1.492,0v-4.02h10.09a0.744,0.744,0,0,0,.746-0.75v-4.01h10.09a0.751,0.751,0,0,0,.746-0.75v-4.01h10.09A0.755,0.755,0,0,0,852.254,2522.2Zm-25.857-4.6a1.544,1.544,0,1,1-1.544-1.56A1.554,1.554,0,0,1,826.4,2517.6Zm-0.8,14.13v-3.87a0.746,0.746,0,1,0-1.492,0v3.87h-0.8v-4.52a0.753,0.753,0,0,0-.746-0.76,0.215,0.215,0,0,1-.212-0.21v-3.02a2.5,2.5,0,1,1,5,0v3.02a0.215,0.215,0,0,1-.212.21,0.753,0.753,0,0,0-.746.76v4.52h-0.8Zm12.034-18.89a1.544,1.544,0,1,1-1.544-1.57A1.554,1.554,0,0,1,837.633,2512.84Zm-0.8,14.12v-3.87a0.746,0.746,0,1,0-1.492,0v3.87h-0.8v-4.52a0.744,0.744,0,0,0-.746-0.75,0.217,0.217,0,0,1-.212-0.22v-3.01a2.5,2.5,0,1,1,5,0v3.01a0.217,0.217,0,0,1-.212.22,0.744,0.744,0,0,0-.746.75v4.52h-0.8Zm12.035-18.89a1.544,1.544,0,1,1-1.544-1.56A1.554,1.554,0,0,1,848.87,2508.07Zm-0.8,14.13v-3.87a0.746,0.746,0,1,0-1.492,0v3.87h-0.8v-4.52a0.753,0.753,0,0,0-.746-0.76,0.209,0.209,0,0,1-.212-0.21v-3.02a2.5,2.5,0,1,1,5,0v3.02a0.209,0.209,0,0,1-.213.21,0.752,0.752,0,0,0-.745.76v4.52h-0.8Z" transform="translate(-819 -2505)"/>
</svg>
