<svg xmlns="http://www.w3.org/2000/svg" width="34" height="34" viewBox="0 0 34 34">
  <defs>
    <style>
      .cls-1 {
        fill-rule: evenodd;
      }
    </style>
  </defs>
  <path id="i9.svg" class="cls-1" d="M1262,2517.56a16.721,16.721,0,0,1-24.76,14.5L1228,2535l3.01-8.89a16.359,16.359,0,0,1-2.39-8.55A16.691,16.691,0,0,1,1262,2517.56Zm-16.69-13.92a13.986,13.986,0,0,0-14.03,13.92,13.8,13.8,0,0,0,2.67,8.17l-1.75,5.17,5.39-1.72A13.959,13.959,0,1,0,1245.31,2503.64Zm8.43,17.74a2.249,2.249,0,0,0-.79-0.48c-0.41-.2-2.42-1.18-2.79-1.32a0.642,0.642,0,0,0-.92.21c-0.28.4-1.06,1.32-1.3,1.59a0.637,0.637,0,0,1-.89.1,11.229,11.229,0,0,1-3.29-2.02,12.176,12.176,0,0,1-2.27-2.81,0.575,0.575,0,0,1,.18-0.82c0.18-.19.41-0.48,0.61-0.72a2.567,2.567,0,0,0,.41-0.67,0.737,0.737,0,0,0-.03-0.71c-0.11-.21-0.92-2.2-1.27-3.02s-0.68-.67-0.92-0.67-0.51-.04-0.78-0.04a1.493,1.493,0,0,0-1.09.51,4.5,4.5,0,0,0-1.43,3.38,7.813,7.813,0,0,0,1.67,4.2c0.2,0.27,2.83,4.51,6.99,6.13s4.16,1.09,4.91,1.02a4.161,4.161,0,0,0,2.76-1.93A3.4,3.4,0,0,0,1253.74,2521.38Z" transform="translate(-1228 -2501)"/>
</svg>
