<svg xmlns="http://www.w3.org/2000/svg" width="22" height="20" viewBox="0 0 22 20">
  <defs>
    <style>
      .cls-1 {
        fill-rule: evenodd;
      }
    </style>
  </defs>
  <path id="ic1.svg" class="cls-1" d="M410.56,529.944h-2.166v-0.577a1.141,1.141,0,1,0-2.238,0v0.577h-2.728v-0.577a1.142,1.142,0,1,0-2.239,0v0.577h-2.727v-0.577a1.142,1.142,0,1,0-2.239,0v0.577H393.5v-0.577a1.142,1.142,0,1,0-2.239,0v0.577h-1.815a0.45,0.45,0,0,0-.445.455v6.027a0.45,0.45,0,0,0,.445.455H410.56a0.451,0.451,0,0,0,.445-0.455V530.4A0.45,0.45,0,0,0,410.56,529.944Zm-0.444,6.027H389.887v-5.116H391.7a0.45,0.45,0,0,0,.445-0.456v-1.032a0.286,0.286,0,1,1,.459,0V530.4a0.451,0.451,0,0,0,.445.456h3.618a0.451,0.451,0,0,0,.445-0.456v-1.032a0.286,0.286,0,1,1,.459,0V530.4a0.45,0.45,0,0,0,.444.456h3.618a0.451,0.451,0,0,0,.445-0.456v-1.032a0.286,0.286,0,1,1,.459,0V530.4a0.45,0.45,0,0,0,.444.456H406.6a0.45,0.45,0,0,0,.445-0.456v-1.032a0.286,0.286,0,1,1,.46,0V530.4a0.45,0.45,0,0,0,.444.456h2.167v5.116h0Zm-0.772,1.74a0.449,0.449,0,0,0-.444.455v8.922H391.1v-8.922a0.445,0.445,0,1,0-.89,0v9.378a0.45,0.45,0,0,0,.445.455h18.687a0.449,0.449,0,0,0,.445-0.455v-9.378A0.449,0.449,0,0,0,409.344,537.711Zm-4.9,3.5h1.984a0.451,0.451,0,0,0,.445-0.456v-2.03a0.45,0.45,0,0,0-.445-0.455h-1.984a0.449,0.449,0,0,0-.445.455v2.03A0.45,0.45,0,0,0,404.442,541.208Zm0.445-2.031h1.094v1.12h-1.094v-1.12Zm-4.28,2.031h1.984a0.45,0.45,0,0,0,.445-0.456v-2.03a0.449,0.449,0,0,0-.445-0.455h-1.984a0.449,0.449,0,0,0-.445.455v2.03A0.45,0.45,0,0,0,400.607,541.208Zm0.445-2.031h1.094v1.12h-1.094v-1.12Zm-6.131,5.966a0.45,0.45,0,0,0,.445-0.456v-2.031a0.45,0.45,0,0,0-.445-0.455h-1.984a0.451,0.451,0,0,0-.445.455v2.031a0.451,0.451,0,0,0,.445.456h1.984Zm-1.539-2.031h1.094v1.12h-1.094v-1.12Zm5.374,2.031a0.45,0.45,0,0,0,.445-0.456v-2.031a0.45,0.45,0,0,0-.445-0.455h-1.984a0.45,0.45,0,0,0-.445.455v2.031a0.45,0.45,0,0,0,.445.456h1.984Zm-1.539-2.031h1.094v1.12h-1.094v-1.12Zm2.945,1.575a0.45,0.45,0,0,0,.445.456h1.984a0.45,0.45,0,0,0,.445-0.456v-2.031a0.45,0.45,0,0,0-.445-0.455h-1.984a0.45,0.45,0,0,0-.445.455v2.031Zm0.89-1.575h1.094v1.12h-1.094v-1.12ZM404,544.687a0.45,0.45,0,0,0,.445.456h1.984a0.451,0.451,0,0,0,.445-0.456v-2.031a0.451,0.451,0,0,0-.445-0.455h-1.984a0.45,0.45,0,0,0-.445.455v2.031Zm0.89-1.575h1.094v1.12h-1.094v-1.12Z" transform="translate(-389 -528)"/>
</svg>
