<svg xmlns="http://www.w3.org/2000/svg" width="22" height="18" viewBox="0 0 22 18">
  <defs>
    <style>
      .cls-1 {
        fill-rule: evenodd;
      }
    </style>
  </defs>
  <path id="ic2.svg" class="cls-1" d="M655.438,542.141h21.126a0.411,0.411,0,0,0,.434-0.382V529.383a0.412,0.412,0,0,0-.434-0.383H655.438a0.411,0.411,0,0,0-.434.383v12.376A0.41,0.41,0,0,0,655.438,542.141Zm0.434-12.376H676.13v11.611H655.872V529.765Zm7.141,13.189a0.476,0.476,0,0,0-.613.025l-3.5,3.381a0.347,0.347,0,0,0-.076.412,0.438,0.438,0,0,0,.4.228h13.549a0.439,0.439,0,0,0,.4-0.232,0.35,0.35,0,0,0-.086-0.415l-3.674-3.381a0.476,0.476,0,0,0-.613-0.011,0.352,0.352,0,0,0-.014.541l2.97,2.734H660.209l2.832-2.741A0.351,0.351,0,0,0,663.013,542.954Zm11.315-11.562H657.686a0.412,0.412,0,0,0-.434.383v7.678a0.411,0.411,0,0,0,.434.382h16.642a0.41,0.41,0,0,0,.434-0.382v-7.678A0.41,0.41,0,0,0,674.328,531.392Zm-0.434,7.678H658.12v-6.912h15.774v6.912Z" transform="translate(-655 -529)"/>
</svg>
