<svg xmlns="http://www.w3.org/2000/svg" width="22" height="20" viewBox="0 0 22 20">
  <defs>
    <style>
      .cls-1 {
        fill: #ffed00;
        fill-rule: evenodd;
      }
    </style>
  </defs>
  <path id="k.svg" class="cls-1" d="M882.56,6152.94h-2.166v-0.57a1.142,1.142,0,1,0-2.238,0v0.57h-2.728v-0.57a1.142,1.142,0,1,0-2.239,0v0.57h-2.727v-0.57a1.142,1.142,0,1,0-2.239,0v0.57H865.5v-0.57a1.142,1.142,0,1,0-2.239,0v0.57h-1.815a0.455,0.455,0,0,0-.445.46v6.03a0.446,0.446,0,0,0,.445.45H882.56a0.447,0.447,0,0,0,.445-0.45v-6.03A0.455,0.455,0,0,0,882.56,6152.94Zm-0.444,6.03H861.887v-5.12H863.7a0.446,0.446,0,0,0,.445-0.45v-1.03a0.287,0.287,0,1,1,.459,0v1.03a0.447,0.447,0,0,0,.445.45h3.618a0.447,0.447,0,0,0,.445-0.45v-1.03a0.287,0.287,0,1,1,.459,0v1.03a0.446,0.446,0,0,0,.444.45h3.618a0.447,0.447,0,0,0,.445-0.45v-1.03a0.287,0.287,0,1,1,.459,0v1.03a0.446,0.446,0,0,0,.444.45H878.6a0.446,0.446,0,0,0,.445-0.45v-1.03a0.288,0.288,0,1,1,.46,0v1.03a0.446,0.446,0,0,0,.444.45h2.167v5.12h0Zm-0.772,1.74a0.449,0.449,0,0,0-.444.46v8.92H863.1v-8.92a0.445,0.445,0,1,0-.89,0v9.37a0.449,0.449,0,0,0,.445.46h18.687a0.449,0.449,0,0,0,.445-0.46v-9.37A0.449,0.449,0,0,0,881.344,6160.71Zm-4.9,3.5h1.984a0.456,0.456,0,0,0,.445-0.46v-2.03a0.447,0.447,0,0,0-.445-0.45h-1.984a0.446,0.446,0,0,0-.445.45v2.03A0.454,0.454,0,0,0,876.442,6164.21Zm0.445-2.03h1.094v1.12h-1.094v-1.12Zm-4.28,2.03h1.984a0.455,0.455,0,0,0,.445-0.46v-2.03a0.446,0.446,0,0,0-.445-0.45h-1.984a0.446,0.446,0,0,0-.445.45v2.03A0.455,0.455,0,0,0,872.607,6164.21Zm0.445-2.03h1.094v1.12h-1.094v-1.12Zm-6.131,5.96a0.446,0.446,0,0,0,.445-0.45v-2.03a0.449,0.449,0,0,0-.445-0.46h-1.984a0.449,0.449,0,0,0-.445.46v2.03a0.447,0.447,0,0,0,.445.45h1.984Zm-1.539-2.03h1.094v1.12h-1.094v-1.12Zm5.374,2.03a0.446,0.446,0,0,0,.445-0.45v-2.03a0.449,0.449,0,0,0-.445-0.46h-1.984a0.449,0.449,0,0,0-.445.46v2.03a0.446,0.446,0,0,0,.445.45h1.984Zm-1.539-2.03h1.094v1.12h-1.094v-1.12Zm2.945,1.58a0.446,0.446,0,0,0,.445.45h1.984a0.446,0.446,0,0,0,.445-0.45v-2.03a0.449,0.449,0,0,0-.445-0.46h-1.984a0.449,0.449,0,0,0-.445.46v2.03Zm0.89-1.58h1.094v1.12h-1.094v-1.12Zm2.945,1.58a0.446,0.446,0,0,0,.445.45h1.984a0.447,0.447,0,0,0,.445-0.45v-2.03a0.449,0.449,0,0,0-.445-0.46h-1.984a0.449,0.449,0,0,0-.445.46v2.03Zm0.89-1.58h1.094v1.12h-1.094v-1.12Z" transform="translate(-861 -6151)"/>
</svg>
