<svg xmlns="http://www.w3.org/2000/svg" width="127" height="184" viewBox="0 0 127 184">
  <defs>
    <style>
      .cls-1 {
        fill: #4b324b;
        fill-rule: evenodd;
      }
    </style>
  </defs>
  <path id="t3.svg" class="cls-1" d="M476.731,8655.1h0A26.349,26.349,0,0,0,503,8628.74v-21.63a4.723,4.723,0,0,0-4.713-4.73H476.733a26.341,26.341,0,0,0-26.27,26.36v16.91h-6.9v-46.93h16.846a26.343,26.343,0,0,0,26.267-26.36v-21.63a4.723,4.723,0,0,0-4.713-4.73H460.4a26.347,26.347,0,0,0-26.269,26.36v5.87c0,0.01,0,.02,0,0.03v49.36h-5.6v-16.91a26.31,26.31,0,0,0-26.268-26.36H380.713a4.712,4.712,0,0,0-4.713,4.73v21.63a26.346,26.346,0,0,0,26.269,26.36h31.864v27.43H384.96a4.717,4.717,0,0,0-4.713,4.73v56.04a4.723,4.723,0,0,0,4.713,4.73H492.735a4.723,4.723,0,0,0,4.713-4.73v-56.04a4.717,4.717,0,0,0-4.713-4.73H443.559v-9.4h33.172Zm-74.461-27.48a16.9,16.9,0,0,1-16.844-16.91V8593.8H402.27a16.89,16.89,0,0,1,16.842,16.91v16.91H402.27Zm73.63,46.33,12.122,12.44v21.72L475.9,8720.55H401.8l-12.122-12.44v-21.72l12.121-12.44H475.9Zm-15.5-84.68H443.561l0-16.91a16.9,16.9,0,0,1,16.844-16.91l16.843,0.01v16.9a16.9,16.9,0,0,1-16.841,16.91h0Zm16.33,56.38-16.843-.01v-16.9a16.9,16.9,0,0,1,16.845-16.91h16.841v16.91a16.9,16.9,0,0,1-16.84,16.91h0Zm-37.886,70.34a18.74,18.74,0,1,0-18.7-18.74A18.745,18.745,0,0,0,438.846,8715.99Zm0-28.02a9.285,9.285,0,1,1-9.271,9.28A9.288,9.288,0,0,1,438.846,8687.97Z" transform="translate(-376 -8546)"/>
</svg>
