<svg xmlns="http://www.w3.org/2000/svg" width="161" height="199" viewBox="0 0 161 199">
  <defs>
    <style>
      .cls-1 {
        fill-rule: evenodd;
      }
    </style>
  </defs>
  <path id="t5.svg" class="cls-1" d="M523.57,9099.28a13.047,13.047,0,0,0,2.851-2.16c4.627-4.65,4.644-11.84,4.66-18.8,0.01-4.43.02-9.02,1.339-12.22,1.232-2.98,4.22-5.96,7.384-9.12,5.012-5.01,10.2-10.18,10.2-17.07s-5.184-12.06-10.2-17.07c-3.164-3.16-6.152-6.14-7.384-9.12-1.319-3.2-1.329-7.79-1.339-12.22-0.016-6.96-.032-14.15-4.659-18.8s-11.784-4.67-18.705-4.68c-4.413-.01-8.976-0.03-12.156-1.35-2.971-1.24-5.938-4.24-9.08-7.42C481.5,8964.21,476.354,8959,469.5,8959s-12,5.21-16.981,10.25c-3.142,3.18-6.11,6.18-9.08,7.42-3.18,1.33-7.744,1.34-12.156,1.35-6.921.01-14.078,0.03-18.7,4.68s-4.644,11.84-4.66,18.8c-0.01,4.43-.021,9.02-1.339,12.22-1.232,2.98-4.22,5.96-7.384,9.12-5.012,5.01-10.2,10.18-10.2,17.07s5.184,12.06,10.2,17.07c3.164,3.16,6.152,6.14,7.383,9.12,1.319,3.2,1.33,7.79,1.34,12.22,0.015,6.96.032,14.15,4.658,18.8a13.111,13.111,0,0,0,2.854,2.16l-18.668,32.5a2.934,2.934,0,0,0-.082,2.77,2.889,2.889,0,0,0,2.257,1.59l22.232,2.67,13.412,18.02a2.9,2.9,0,0,0,2.329,1.17,1,1,0,0,0,.173-0.01,2.882,2.882,0,0,0,2.347-1.45l21.963-38.24a14.3,14.3,0,0,0,16.211,0l21.963,38.24a2.883,2.883,0,0,0,2.347,1.45,1,1,0,0,0,.173.01,2.9,2.9,0,0,0,2.329-1.17l13.412-18.02,22.232-2.67a2.889,2.889,0,0,0,2.257-1.59,2.934,2.934,0,0,0-.082-2.77ZM436.6,9149.77l-11.516-15.47a2.891,2.891,0,0,0-1.985-1.15l-19.089-2.29,17.04-29.66a59.215,59.215,0,0,0,10.234.61,64.376,64.376,0,0,1,8.1.34l-12.03,20.94a2.914,2.914,0,1,0,5.039,2.93l12.638-22c0.006-.01.01-0.02,0.015-0.03a44.469,44.469,0,0,1,7.473,6.58c1.384,1.4,2.782,2.82,4.226,4.13Zm20.049-43.32c-3.408-3.45-6.932-7.01-10.98-8.7-4.244-1.77-9.393-1.78-14.372-1.79-6-.02-11.675-0.03-14.6-2.97s-2.94-8.65-2.954-14.68c-0.011-5.01-.023-10.18-1.783-14.45-1.678-4.07-5.227-7.61-8.658-11.03-4.167-4.16-8.477-8.47-8.477-12.92s4.31-8.76,8.478-12.92c3.431-3.42,6.979-6.96,8.658-11.03,1.76-4.27,1.771-9.44,1.783-14.45,0.014-6.03.027-11.73,2.955-14.68s8.6-2.95,14.6-2.97c4.979-.01,10.127-0.02,14.372-1.79,4.048-1.69,7.572-5.25,10.979-8.7,4.14-4.19,8.42-8.52,12.852-8.52s8.713,4.33,12.852,8.52c3.408,3.45,6.932,7.01,10.98,8.7,4.244,1.77,9.392,1.78,14.371,1.79,6,0.02,11.676.03,14.6,2.97s2.941,8.65,2.955,14.68c0.011,5.01.023,10.18,1.783,14.45,1.678,4.07,5.227,7.61,8.658,11.03,4.167,4.16,8.477,8.47,8.477,12.92s-4.31,8.76-8.478,12.92c-3.431,3.42-6.979,6.97-8.658,11.03-1.76,4.27-1.772,9.45-1.783,14.45-0.014,6.03-.027,11.73-2.955,14.68s-8.6,2.95-14.6,2.97c-4.979.01-10.128,0.02-14.372,1.79-4.048,1.69-7.572,5.25-10.98,8.7-4.138,4.19-8.419,8.52-12.851,8.52S460.787,9110.64,456.648,9106.45Zm59.255,26.7a2.887,2.887,0,0,0-1.985,1.15L502.4,9149.77l-20.147-35.07c1.444-1.31,2.841-2.73,4.226-4.13,2.774-2.8,5.413-5.47,8.037-6.91a3.259,3.259,0,0,0,.171.36l12.638,22a2.915,2.915,0,1,0,5.04-2.93l-12.076-21.02a71.8,71.8,0,0,1,7.426-.26,59.233,59.233,0,0,0,10.235-.61l17.039,29.66Zm6.164-93.24a52.568,52.568,0,1,0-52.567,52.84A52.767,52.767,0,0,0,522.067,9039.91ZM469.5,9086.9a46.991,46.991,0,1,1,46.748-46.99A46.923,46.923,0,0,1,469.5,9086.9Zm0-87.35a40.4,40.4,0,0,0-32.611,63.91,2.913,2.913,0,1,0,4.724-3.41,34.288,34.288,0,1,1,10.72,9.75,2.924,2.924,0,0,0-2.914,5.07A40.3,40.3,0,1,0,469.5,8999.55Zm21.919,40.36a2.91,2.91,0,1,0,5.819,0,27.843,27.843,0,0,0-27.738-27.88,2.925,2.925,0,0,0,0,5.85A22,22,0,0,1,491.419,9039.91Z" transform="translate(-389 -8959)"/>
</svg>
